<?xml version="1.0" standalone="yes"?>
<svg xmlns="http://www.w3.org/2000/svg" width="944" height="548">
<path style="fill:#ffffff; stroke:none;" d="M0 0L0 548L944 548L944 0L0 0z"/>
<path style="fill:#010101; stroke:none;" d="M145 150L145 308L146 308C146.006 249.255 175.541 199.321 203 150L145 150z"/>
<path style="fill:#1373bb; stroke:none;" d="M165 360C164.882 345.704 163.105 331.37 164.09 317C166.77 277.861 176.956 240.59 193.309 205C202.293 185.446 218.417 169.286 227 150C220.513 150 208.921 147.764 203.184 151.028C193.478 156.551 185.622 176.287 180.753 186C162.937 221.541 150.023 259.204 146.17 299C144.719 313.977 145 328.952 145 344C145 347.75 143.445 356.305 146.742 358.972C150.369 361.906 160.508 360 165 360z"/>
<path style="fill:#010101; stroke:none;" d="M165 360L173 360L173 349L243 349C250.877 349 264.426 351.608 271 346.682C284.139 336.837 295.388 322.612 307 311L380 238L408 210C410.935 207.065 415.629 200.205 420 199.631C426.048 198.837 437 214 441 218C456.515 233.515 471.494 249.494 487 265C491.743 269.743 503.061 277.404 504.793 284C505.953 288.415 492.413 301.948 488 301.369C481.473 300.512 472.522 287.522 468 283C462.08 277.08 455.917 271.323 450.424 265C441.26 254.451 430.879 244.879 421 235L420 235L338 317L296 360L318 349.005L410 349L449 348.397L470 329L511 288L528.258 269L529 250L529 211L523 211L523 196L568 196L568 211L562 211L562 235L588 210L599 201.056L609.985 210L639 240L714 315L754 354C757.774 341.232 755.443 323.154 754.17 310C750.151 268.469 739.486 228.746 719.306 192C712.873 180.287 703.326 158.009 691.561 151.028C685.277 147.299 671.201 150 664 150L593 150L333 150L255 150C247.853 150 232.457 147.107 226.616 151.603C214.801 160.698 206.29 180.184 199.14 193C169.837 245.527 163.786 301.179 165 360z"/>
<path style="fill:#1373bb; stroke:none;" d="M692 150C699.578 167.027 713.697 182.36 722.691 199C741.341 233.504 750.423 272.286 754.17 311C755.464 324.376 757.135 340.831 754 354L639 239L609.985 209L599 200.207L588 209L562 235L562 211L568 211L568 196L523 196L523 211L529 211L529 250C529 255.486 530.243 262.804 528.258 268C525.741 274.589 517.877 280.123 513 285L479 319C470.998 327.002 456.711 347.922 445 348.941C411.56 351.853 376.581 349 343 349C326.923 349 311.348 345.31 301 360L423 360L459 360C464.153 360 471.11 361.2 476 359.397C488.514 354.783 501.611 335.389 511 326C529.514 307.486 547.496 288.504 566 270C576.553 259.447 589.403 249.205 598 237L663 302L706 345C710.485 349.485 715.262 356.103 721 358.972C729.357 363.151 745.729 360 755 360C759.155 360 771.016 362.079 773.258 357.682C775.334 353.609 774 346.463 774 342C774 329.641 774.359 317.293 773.17 305C769.167 263.636 757.833 225.167 739.247 188C734.123 177.753 726.073 156.864 715.816 151.028C710.079 147.764 698.487 150 692 150z"/>
<path style="fill:#010101; stroke:none;" d="M716 150C743.459 199.321 772.993 249.255 773 308L774 308L774 150L716 150z"/>
<path style="fill:#1373bb; stroke:none;" d="M320 290L347 265L356.397 254L357 223L357 154C347.854 156.093 339.155 162.615 331 167.139C327.829 168.898 323.087 170.357 321.028 173.529C316.655 180.268 320 198.04 320 206L320 290M360 154L360 251L385.015 226L396.397 213L397 192L395.972 173.637L386 167.306L360 154M173 349L173 360L258 360L295 359.397L307 349L331 325L390 266L420 235C430.21 245.21 440.954 255.098 450.424 266C455.917 272.323 462.08 278.08 468 284C472.577 288.577 481.315 301.29 488 302.079C492.745 302.639 506.842 288.766 505.654 284C504.001 277.368 492.735 269.735 488 265C472.16 249.16 456.849 232.849 441 217C436.837 212.837 426.387 198.168 420 198.921C415.506 199.452 410.985 206.015 408 209L380 237L307 310C295.066 321.934 283.503 336.565 270 346.682C263.587 351.487 250.673 349 243 349L173 349M237 245L265 230C258.254 242.298 237.059 239.324 237 256L265 241C258.543 253.428 237.059 250.342 237 267L265 252C258.576 264.364 237.058 261.474 237 278L265 263C258.552 275.412 237.058 272.496 237 289L265 274C258.545 286.426 237.058 283.622 237 300L265 285C258.554 297.409 237.057 294.728 237 311L265 296C258.591 308.366 237.057 305.801 237 322L265 307C258.641 319.439 237.057 316.837 237 333L265 318C258.677 330.369 237.057 328.014 237 344L265 329L246 344C253.192 344 258.899 344.289 265 340L265 344C277.786 340.408 274 323.332 274 313L274 216L248 229.139L238.028 235.529L237 245M276 216L276 334C286.325 329.185 294.99 317.01 303 309C306.212 305.788 310.78 302.385 312.397 298C315.996 288.238 313 272.391 313 262C313 255.527 315.716 241.059 311.972 235.634C306.527 227.743 285.079 218.616 276 216z"/>
<path style="fill:#010101; stroke:none;" d="M598 237L520 316L477 360L721 360C704.923 337.177 679.757 317.757 660 298C640.243 278.243 620.823 253.077 598 237z"/>
<path style="fill:#1373bb; stroke:none;" d="M173 344L201 344L201 261C193.794 263.076 178.311 269.237 174.028 275.61C171.098 279.968 173 289.912 173 295L173 344M202 261L202 344L230 344L230 296C230 290.487 231.731 281.444 229.397 276.379C226.42 269.92 208.642 262.52 202 261M393 279L393 302L416 302L416 279L393 279M425 279L425 302L448 302L448 279L425 279M571 298L571 321L594 321L594 298L571 298M603 298L603 321L626 321L626 298L603 298M393 311L393 334L416 334L416 311L393 311M425 311L425 334L448 334L448 311L425 311M571 330L571 353L594 353L594 330L571 330M603 330L603 353L626 353L626 330L603 330z"/>
<path style="fill:#010101; stroke:none;" d="M145.333 358.667L145.667 359.333L145.333 358.667M773.333 358.667L773.667 359.333L773.333 358.667M69 409L69 411L86 411L86 478L128 478L128 493L69 493L69 494L165 494L165 493C124.755 486.968 124.859 416.017 165 410L136 409L69 409z"/>
<path style="fill:#717f87; stroke:none;" d="M165 409.465C134.606 414.944 126.144 457.254 142.927 479.996C152.683 493.215 170.574 496.317 186 493.535C216.68 488.004 225.325 444.612 207.471 422.015C197.635 409.566 179.888 406.78 165 409.465z"/>
<path style="fill:#010101; stroke:none;" d="M186 409L186 410C201.778 412.365 214.28 427.247 215 443L216 443L216 409L186 409M592 410L592 411C611.976 413.046 618.464 440.11 605.532 453.699C595.534 464.205 579.151 462 566 462L566 493L644 494L644 493C630.487 490.591 621.608 478.314 621 465C625.304 464.988 632.864 462.594 636.582 465.029C639.765 467.113 640.493 472.071 643.214 474.786C648.626 480.188 660.697 480.912 666.891 476.297C671.325 472.994 672.286 466.534 667.772 462.853C658.623 455.396 643.846 457.414 634.001 450.362C617.11 438.263 623.632 413.064 644 410L628 409L592 410z"/>
<path style="fill:#717f87; stroke:none;" d="M621 465C621.599 493.101 663.807 506.177 682.319 485.699C700.554 465.528 680.912 446.419 661 441.374C655.779 440.052 641.927 438.299 641.752 430.989C641.605 424.867 651.417 422.864 656 423.34C666.241 424.405 666.523 435.033 677 434.999C679.674 434.991 683.968 435.471 685.393 432.566C688.96 425.295 679.626 415.389 673.996 412.402C661.532 405.79 637.803 406.496 628.394 418.04C625.852 421.158 624.419 425.011 624.093 429C622.656 446.596 636.04 453.519 651 457.37C656.883 458.885 665.486 459.784 669.254 465.188C677.368 476.827 654.104 481.275 647.004 476.991C642.065 474.011 641.439 468.087 637.301 465.028C633.533 462.242 625.411 464.963 621 465z"/>
<path style="fill:#010101; stroke:none;" d="M666 409L666 410C673.693 411.828 689.366 421.516 685.356 431.772C683.706 435.993 674.62 435.884 671.143 434.397C667.823 432.976 667.187 428.759 664.657 426.43C659.64 421.813 644.261 421.202 641.647 429.054C639.431 435.714 648.405 438.255 653 439.573C663.5 442.582 676.148 443.983 683.471 453.04C695.56 467.993 685.328 490.253 667 493L667 494L724 494L724 493C714.54 491.577 705.927 484.436 703.515 475C698.403 455.005 702 430.555 702 410L719 410C719 428.369 714.969 452.364 720.652 469.996C723.728 479.54 739.561 482.446 746.606 475.581C751.499 470.813 751 462.256 751 456L751 410L769 410C769 426.061 768.74 442 768.039 458C767.355 473.636 765.818 489.749 747 493L747 494L865 494L865 493L849 493L849 434L848 434L834 493L816 493L802 433L801 433L801 493L785 493L785 410L811 410L825 463L826 463L839 410L865 410L846 409L806 409L666 409z"/>
<path style="fill:#717f87; stroke:none;" d="M228 410L228 493L246 493L246 459C267.484 459.014 267.585 480.234 281.518 491.397C286.184 495.135 297.286 493 303 493C299.229 481.089 287.657 462.21 276 457C281.572 455.064 287.479 453.617 291.468 448.895C300.021 438.769 297.989 419.976 285.999 413.417C270.854 405.133 244.781 410 228 410z"/>
<path style="fill:#010101; stroke:none;" d="M276 410L276 411C302.749 413.35 302.551 453.28 276 456L276 457C288.638 465.383 295.818 492.946 311 493L311 410L276 410z"/>
<path style="fill:#717f87; stroke:none;" d="M311 410L311 493L375 493L375 478L329 478L329 457L370 457L370 442L329 442L329 425L373 425L373 410L311 410z"/>
<path style="fill:#010101; stroke:none;" d="M373 410L373 425L329 425L329 442L370 442L370 457L329 457L329 478L375 478L375 493L388 493L388 410L373 410z"/>
<path style="fill:#717f87; stroke:none;" d="M388 410L388 493L404 493L404 433L405 433L415.626 477L420.564 491.972L437 493L451 435L452 435L452 493L469 493L469 410L442 410L429 463L418 425L413.272 411.028L388 410z"/>
<path style="fill:#010101; stroke:none;" d="M414 410L428 463L429 463L442 410L414 410M469 410L469 493L516 493L516 410L469 410z"/>
<path style="fill:#717f87; stroke:none;" d="M516 410L516 493L533 493L533 410L516 410z"/>
<path style="fill:#010101; stroke:none;" d="M533 410L533 493L548 493L548 410L533 410z"/>
<path style="fill:#717f87; stroke:none;" d="M548 410L548 493L566 493L566 462C577.112 462 590.987 463.949 600.985 458.045C615.355 449.559 616.481 424.492 602.985 414.638C589.782 404.998 563.547 410 548 410M702 410L702 455C702 463.466 701.216 473.288 705.417 481C715.109 498.791 754.557 500.292 764.583 481.999C768.747 474.401 767.525 466.238 768.089 458C769.184 442.021 769 426.045 769 410L751 410L751 456C750.997 462.535 751.106 470.838 745.786 475.581C738.125 482.411 723.786 478.796 720.652 468.999C715.086 451.602 719 428.11 719 410L702 410M785 410L785 493L801 493L801 433L802 433L816 493L834 493L848 434L849 434L849 493L865 493L865 410L839 410L826 463L825 463L811 410L785 410M69 411L69 493L128 493L128 478L86 478L86 411L69 411z"/>
<path style="fill:#010101; stroke:none;" d="M170 424.529C142.063 430.987 149.831 485.676 181 478.471C208.806 472.043 201.798 417.179 170 424.529M246 425L246 445C254.136 445 266.5 446.79 273.811 442.543C279.972 438.965 278.985 429.317 272.981 426.179C266.14 422.604 253.591 425 246 425M566 425L566 447C572.973 447 582.653 448.631 588.895 444.86C595.961 440.591 595.175 430.115 587.985 426.573C581.729 423.491 572.784 425 566 425M404 433L404 493L420 493C414.747 474.352 413.107 450.005 404 433M451 435L437 493L452 493L452 454L451 435M246 459L246 493L282 493C274.809 477.798 264.062 459.002 246 459M215 460C214.277 475.816 201.827 490.628 186 493L186 494L216 494L215 460z"/>
</svg>
